<svg display="none" xmlns="http://www.w3.org/2000/svg">
 <symbol id="letter" display="block" viewBox="0 0 400 402" >
 <path d="M168 1.65c-8.819 1.486-22.291 4.66-27.5 6.478-1.65.576-4.35 1.427-6 1.891-12.438 3.499-41.741 18.336-49.208 24.917-.664.585-1.639 1.064-2.166 1.064-.528 0-1.109.337-1.293.75-.183.413-2.133 2.078-4.333 3.7C69.63 46.255 46 69.072 46 70.866c0 .569-.597 1.394-1.326 1.834C43.157 73.615 33 86.428 33 87.426c0 .362-.469 1.202-1.043 1.866C4.409 121.199-8.356 198.524 5.179 251.5c2.723 10.654 5.942 20.778 6.98 21.95.462.522.841 1.578.841 2.345 0 3.728 16.481 34.133 21.387 39.455.887.963 1.613 2.041 1.613 2.397 0 .546 3.075 4.601 8.611 11.353 4.269 5.206 25.3 25.58 30.567 29.611 3.477 2.661 7.13 5.578 8.118 6.481.988.904 3.351 2.48 5.25 3.503 1.9 1.023 3.454 2.207 3.454 2.632 0 .425.43.773.956.773.525 0 2.624 1.132 4.663 2.516 9.668 6.561 35.517 17.74 47.381 20.492 1.925.446 5.975 1.487 9 2.312 13.945 3.804 23.308 4.68 50 4.68 31.337 0 38.788-1.011 64.5-8.753 12.529-3.773 30.138-11.75 39.999-18.121 5.463-3.53 7.613-4.84 10.251-6.247 1.238-.66 2.25-1.578 2.25-2.04 0-.461.463-.839 1.029-.839.884 0 4.614-2.715 12.376-9.005 2.168-1.758 26.203-25.804 27.982-27.995 4.553-5.609 7.613-9.925 7.613-10.739 0-.523.787-1.668 1.75-2.543.962-.876 2.646-3.308 3.74-5.405 1.095-2.097 2.286-4.038 2.646-4.313.911-.695 10.282-18.838 11.621-22.5a529.91 529.91 0 0 1 3.252-8.5c3.846-9.824 6.961-20.426 6.976-23.75L400 248H295.413l-3.423 7.25c-1.882 3.988-4.9 9.383-6.706 11.99-1.806 2.607-3.284 5.194-3.284 5.75 0 .555-.353 1.01-.784 1.01-.432 0-1.533 1.238-2.447 2.75-6.421 10.625-24.057 24.292-39.269 30.432-24.973 10.08-69.225 7.015-84.579-5.858-.868-.728-1.911-1.324-2.316-1.324-.923 0-7.986-5.232-8.438-6.25-.184-.413-.731-.75-1.216-.75-1.202 0-14.951-13.826-14.951-15.034 0-.532-.396-.966-.88-.966-2.997 0-16.622-24.389-20.391-36.5-20.814-66.88 12.241-135.013 72.584-149.61 21.811-5.276 61.111.009 72.766 9.786.868.728 1.929 1.324 2.358 1.324 1.91 0 17.563 13.325 17.563 14.95 0 .523.578 1.31 1.285 1.75 1.496.931 8.715 9.718 8.715 10.609 0 .331 1.162 2.31 2.583 4.397 1.42 2.087 3.687 6.269 5.037 9.294 1.35 3.025 3.226 7.075 4.169 9l1.715 3.5 52.369.259 52.369.259-.545-5.759c-1.167-12.336-11.123-37.899-19.725-50.646-1.635-2.422-2.972-4.705-2.972-5.075 0-.874-5.273-7.937-6.25-8.371-.413-.184-.75-.773-.75-1.309 0-3.607-34.462-41.806-37.75-41.844-.687-.008-1.25-.388-1.25-.844 0-.457-2.137-2.352-4.75-4.21-2.613-1.859-4.9-3.735-5.083-4.17-.184-.434-.711-.79-1.172-.79-.461 0-3.911-2.063-7.667-4.584-18.153-12.187-46.205-22.457-73.386-26.866-12.691-2.058-58.514-1.994-70.942.1m77 3.696c15.993 3.406 20.99 4.67 24.784 6.27 1.806.761 3.928 1.384 4.716 1.384 3.264 0 27.94 12.026 37.323 18.189 4.028 2.646 7.741 4.811 8.25 4.811.51 0 .927.39.927.867s1.688 2.005 3.75 3.397c15.225 10.269 43.558 42.102 51.751 58.144.869 1.7 2.672 4.892 4.007 7.092 1.335 2.2 3.37 6.025 4.522 8.5 1.152 2.475 2.722 5.85 3.488 7.5 2.631 5.659 8.194 23.001 8.743 27.25l.549 4.25H296.898l-1.54-3.75c-6.732-16.388-17.922-32.023-30.956-43.25-30.778-26.512-91.79-26.523-122.857-.021-19.797 16.887-30.849 33.07-37.918 55.521-7.57 24.046-7.377 57.824.455 79.5.696 1.925 1.749 4.85 2.342 6.499 4.645 12.942 17.024 31.233 28.002 41.374a573.509 573.509 0 0 1 5.726 5.353c23.629 22.662 73.873 28.767 105.848 12.862 19.875-9.886 36.374-27.054 48.014-49.959l3.114-6.129h100.685l-.516 2.25c-.671 2.922-4.78 15.988-6.841 21.75-2.575 7.2-14.544 31.219-17.691 35.5-.404.55-1.867 2.415-3.25 4.144-1.383 1.73-2.515 3.605-2.515 4.167 0 .562-.377 1.172-.837 1.356-.461.183-2.148 2.133-3.75 4.333-7.804 10.717-24.883 27.41-36.833 36-1.53 1.1-4.735 3.462-7.121 5.25-2.387 1.788-4.596 3.25-4.909 3.25-.314 0-2.703 1.473-5.31 3.272-5.329 3.679-25.468 13.728-27.512 13.728-.73 0-1.756.409-2.278.91-1.438 1.377-22.644 7.577-33.95 9.926-27.52 5.717-69.359 4.292-95.5-3.254-16.487-4.759-17.029-4.945-26.25-9.017-6.767-2.989-14.392-6.783-18.25-9.08-2.2-1.31-4.9-2.854-6-3.431-2.514-1.319-5.844-3.397-6.5-4.057-.275-.276-2.525-1.851-5-3.5-2.475-1.648-4.95-3.481-5.5-4.074-.55-.592-3.025-2.597-5.5-4.455-11.395-8.554-37-35.423-37-38.825 0-.537-.395-1.126-.877-1.31-1.792-.681-12.051-17.694-17.085-28.333-2.863-6.05-5.536-11.675-5.941-12.5-.667-1.357-2.998-8.726-6.642-21-8.157-27.464-8.094-93.83.1-107.089.264-.428.883-2.72 1.376-5.094 1.029-4.959 5.991-18.658 8.628-23.817a323.17 323.17 0 0 0 2.984-6c3.984-8.331 12.32-22.217 13.707-22.833.413-.184.75-.971.75-1.75S36.42 86 36.933 86c.513 0 1.186-.787 1.497-1.75.311-.963 2.141-3.463 4.068-5.556C44.424 76.601 46 74.555 46 74.147c0-.407 1.331-1.845 2.958-3.194 1.626-1.349 2.976-2.75 3-3.113.04-.634 9.189-9.713 17.542-17.408 10.509-9.682 32.976-24.499 44.5-29.347 3.025-1.273 5.954-2.677 6.508-3.121 2.608-2.088 25.67-9.259 38.992-12.124 21.503-4.626 64.922-4.876 85.5-.494" fill-rule="evenodd"/>
 </symbol>
</svg>