<?xml version="1.0" standalone="no"?>
<!DOCTYPE svg PUBLIC "-//W3C//DTD SVG 20010904//EN"
 "http://www.w3.org/TR/2001/REC-SVG-20010904/DTD/svg10.dtd">
<svg version="1.0" xmlns="http://www.w3.org/2000/svg"
 width="522.000000pt" height="524.000000pt" viewBox="0 0 522.000000 524.000000"
 preserveAspectRatio="xMidYMid meet">
<metadata>
Created by potrace 1.15, written by Peter Selinger 2001-2017
</metadata>
<g transform="translate(0.000000,524.000000) scale(0.100000,-0.100000)"
fill="#000000" stroke="none">
<path d="M2375 5229 c-621 -58 -1144 -299 -1594 -734 -421 -407 -672 -898
-758 -1480 -24 -162 -24 -608 -1 -770 75 -512 264 -930 601 -1321 363 -421
845 -720 1367 -849 246 -60 341 -70 670 -70 336 0 430 11 686 75 469 119 884
363 1235 727 193 201 319 381 445 639 66 135 169 415 189 512 l7 32 -681 0
-681 0 -46 -92 c-138 -276 -339 -496 -565 -617 -275 -149 -655 -182 -983 -86
-367 107 -699 430 -857 834 -126 321 -143 735 -44 1074 88 306 289 592 538
768 298 211 687 278 1082 187 348 -80 609 -296 791 -653 28 -55 58 -119 67
-142 l17 -43 680 0 c537 0 680 3 680 13 -1 35 -43 196 -80 302 -78 225 -249
524 -426 745 -99 123 -293 320 -409 413 -386 312 -849 492 -1380 537 -139 11
-420 11 -550 -1z m697 -28 c303 -44 537 -115 783 -236 398 -196 729 -494 1000
-900 182 -274 282 -504 349 -807 l6 -28 -671 0 -671 0 -16 43 c-29 76 -119
244 -174 324 -68 100 -213 245 -303 305 -140 92 -286 152 -450 184 -125 25
-424 26 -548 1 -526 -106 -934 -534 -1057 -1112 -28 -129 -38 -406 -20 -555
33 -286 149 -570 319 -782 203 -254 447 -414 731 -480 124 -28 392 -35 525
-14 411 68 715 304 941 730 l56 106 668 0 669 0 -19 -67 c-174 -627 -536
-1123 -1085 -1486 -133 -88 -368 -207 -518 -262 -475 -174 -1068 -203 -1592
-78 -727 173 -1387 703 -1725 1388 -118 238 -185 457 -232 755 -32 206 -32
589 0 795 89 576 317 1028 723 1434 448 448 996 703 1639 761 152 14 515 3
672 -19z"/>
</g>
</svg>
